<?xml version="1.0" encoding="utf-8"?>
<!-- Generator: Adobe Illustrator 21.0.0, SVG Export Plug-In . SVG Version: 6.00 Build 0)  -->
<svg version="1.1" id="Layer_18" xmlns="http://www.w3.org/2000/svg" xmlns:xlink="http://www.w3.org/1999/xlink" x="0px" y="0px"
	 viewBox="0 0 1283 247" style="enable-background:new 0 0 1283 247;" xml:space="preserve">
<style type="text/css">
	.st0{fill:#FFFFFF;stroke:#000000;stroke-width:6;stroke-linecap:round;stroke-linejoin:round;}
	.st1{fill:none;stroke:#000000;stroke-width:6;stroke-linecap:round;stroke-linejoin:round;}
	.st2{fill:none;stroke:#2EC4B6;stroke-width:6;stroke-linecap:round;stroke-linejoin:round;}
	.st3{fill:#50A9CC;}
	.st4{fill:#83BA7F;}
	.st5{fill:none;stroke:#1F2C39;stroke-width:2;stroke-linecap:round;stroke-linejoin:round;}
	.st6{fill:none;stroke:#FF9F1C;stroke-width:6;stroke-linecap:round;stroke-linejoin:round;}
	.st7{fill:#E71D36;}
	.st8{fill:#005499;}
	.st9{fill:#1F2C39;}
	.st10{fill:#FF9F1C;}
	.st11{fill:none;stroke:#1F2C39;stroke-width:3;stroke-linecap:round;stroke-linejoin:round;}
	.st12{fill:none;stroke:#1F2C39;stroke-width:2.5;stroke-linecap:round;stroke-linejoin:round;}
	.st13{fill:none;stroke:#FFFFFF;stroke-width:4;stroke-linecap:round;stroke-linejoin:round;}
	.st14{fill:#FFFFFF;stroke:#61DEFF;stroke-width:4;stroke-linecap:round;stroke-linejoin:round;}
	.st15{fill:#D8D8D8;stroke:#77818C;stroke-width:6;stroke-miterlimit:10;}
	.st16{fill:#ECF0F1;}
	.st17{fill:#FDFFFC;}
	.st18{fill:#ECF0F1;stroke:#FDFFFC;stroke-width:6;stroke-miterlimit:10;}
	.st19{fill:#77818C;}
	.st20{fill:#FF9F1C;stroke:#FDFFFC;stroke-width:4;stroke-miterlimit:10;}
	.st21{fill:#77818C;stroke:#FDFFFC;stroke-width:4;stroke-miterlimit:10;}
	.st22{fill:#77818C;stroke:#FDFFFC;stroke-width:2;stroke-miterlimit:10;}
	.st23{fill:none;stroke:#77818C;stroke-width:6;stroke-miterlimit:10;}
	.st24{fill:#FFFFFF;stroke:#77818C;stroke-width:6;stroke-miterlimit:10;}
	.st25{fill:none;stroke:#77818C;stroke-width:6;stroke-linecap:round;stroke-linejoin:round;}
	.st26{fill:#2EC4B6;stroke:#2EC4B6;stroke-width:6;stroke-miterlimit:10;}
	.st27{fill:#FFFFFF;}
	.st28{fill:#77818C;stroke:#77818C;stroke-width:6;stroke-miterlimit:10;}
	.st29{fill:none;stroke:#77818C;stroke-width:4;stroke-linecap:round;stroke-linejoin:round;}
	
		.st30{opacity:0.87;fill:#2EC4B6;stroke:#ECF0F1;stroke-width:6;stroke-linecap:round;stroke-linejoin:round;enable-background:new    ;}
	.st31{fill:#76CEC3;stroke:#ECF0F1;stroke-width:6;stroke-linecap:round;stroke-linejoin:round;}
	.st32{fill:#2EC4B6;stroke:#ECF0F1;stroke-width:6;stroke-linecap:round;stroke-linejoin:round;}
	.st33{fill:#92D3CB;stroke:#ECF0F1;stroke-width:6;stroke-linecap:round;stroke-linejoin:round;}
	
		.st34{opacity:0.87;fill:#FDFFFC;stroke:#ECF0F1;stroke-width:6;stroke-linecap:round;stroke-linejoin:round;enable-background:new    ;}
	.st35{fill:#D8D8D8;}
	.st36{fill:none;stroke:#005499;stroke-width:3;stroke-miterlimit:10;}
	.st37{fill:none;stroke:#E71D36;stroke-width:3;stroke-miterlimit:10;}
	.st38{fill:none;stroke:#2EC4B6;stroke-linecap:round;stroke-linejoin:round;}
	.st39{fill:none;stroke:#77818C;stroke-width:0.5;stroke-linecap:round;stroke-linejoin:round;}
</style>
<g id="jaques-cartier-bridge">
	<path class="st0" d="M776.5,156.7H393"/>
	<path class="st1" d="M608.7,98v74.5 M720.3,98v74.5"/>
	<path id="bridge-light" class="st2" d="M561.8,152.1v-14.7c0,0,26.4,3.8,46.9-24.5c0,0,18.2,24.5,56.2,24.5s55.4-24.5,55.4-24.5
		s5,24.5,47.7,24.5v14.7 M574.9,137.4v19.3 M586.2,132.7v24 M597.4,125.7v31 M619.1,124.2v32.5 M630.3,129.6v27.1 M641.4,134.3v22.4
		 M652.6,138.1v18.6 M674.9,138.1v18.6 M663.7,138.1v18.6 M686,136.6v20.1 M697.2,133.5v23.2 M708.3,125.7v31 M732.3,128.1v28.6
		 M744.5,134.3v22.4 M756.6,137.4v19.3"/>
</g>
<path id="st-laurent-river" class="st3" d="M352,163h931v48H352V163z"/>
<g id="laronde">
	<path class="st4" d="M886.2,136.5c26-2.8,43.5,0.3,54.6,3.6c19.5,5.8,22,13.1,41.2,15.4c14.9,1.8,19.2-1.8,41.2,0
		c12.1,1,29.8,3.7,29.7,6.5s-27.6,2.8-27.9,5.7s53.4,5.8,54,11.4c1.1,10.3-172.8,30.4-244.3,13.4c-12.2-2.9-33.1-14.4-66.1-16.2
		c-17.4-0.9-33.8,0.7-35.2-2.4s19.1-10.6,22.4-11.8c25.5-8.4,45.1-8.2,66.1-10.5C837.4,149.7,855.9,141.7,886.2,136.5L886.2,136.5z"
		/>
	<path class="st5" d="M927.4,100.8V156 M937.2,94.5l0.5,60.6 M947.2,94.5l0.5,60.6 M957.2,94.5l0.5,60.6 M968.3,104.7l0.5,49.4
		 M979,125l0.5,29.1 M987.2,133.3l0.5,20.8 M992.6,139.6v14.5 M997.4,140.5v14.6 M1002.2,140.5v14.6 M887.3,126v27.1 M897.4,135.2
		v19.9 M907.4,135.2v19.9 M917.4,125v31 M877.3,105.2v45.5 M857.3,87.8v61 M867.3,90.7v60 M817.2,116.3v46.9 M809.2,130.7v32.5
		 M827.4,102.3l-0.3,60 M837.2,93.6l0.2,68.7 M846.9,90.7l0.8,69.8"/>
	<path class="st6" d="M799.3,152.4c0,0,25.3-65.1,53.4-65.1s29.7,40,38.1,44.6c8.4,4.6,25.2,0,26.2-6.8c1.3-9.1,2.1-32.4,32-32
		s17.8,44.6,57.6,47.7c39.8,3.1-76.1,26.7-139.2,8.5c-84.8-24.4-24-43.1,22.2-38.4s25.7,29.9,71.4,29.9s42.1,16.7,93.6,18.6"/>
	<path class="st7" d="M853,78.9h2.4c1.5,0,2.8,1.2,2.8,2.8l0,0c0,1.5-1.3,2.8-2.8,2.8H853c-1.5,0-2.8-1.2-2.8-2.8l0,0
		C850.2,80.2,851.5,78.9,853,78.9z"/>
	<circle class="st8" cx="852.7" cy="85.1" r="1.2"/>
	<circle class="st8" cx="855.7" cy="85.1" r="1.2"/>
	<path class="st7" d="M842,80.9l2.3-0.6c1.5-0.4,3,0.4,3.4,1.9l0,0c0.4,1.5-0.5,3-1.9,3.4l-2.3,0.6c-1.5,0.4-3-0.4-3.4-1.9l0,0
		C839.6,82.8,840.5,81.3,842,80.9z"/>
	<ellipse transform="matrix(0.9627 -0.2706 0.2706 0.9627 7.9418 231.4119)" class="st8" cx="843.2" cy="86.9" rx="1.2" ry="1.2"/>
	<ellipse transform="matrix(0.9627 -0.2706 0.2706 0.9627 8.3018 232.2181)" class="st8" cx="846.3" cy="86" rx="1.2" ry="1.2"/>
	<path class="st7" d="M831.8,84.1l2-1.3c1.3-0.8,3-0.4,3.8,0.9l0,0c0.8,1.3,0.4,3-0.9,3.8l-2,1.3c-1.3,0.8-3,0.4-3.8-0.9l0,0
		C830.1,86.6,830.5,84.9,831.8,84.1z"/>
	<ellipse transform="matrix(0.8526 -0.5225 0.5225 0.8526 76.2445 449.3208)" class="st8" cx="834.7" cy="89.5" rx="1.2" ry="1.2"/>
	<ellipse transform="matrix(0.8526 -0.5225 0.5225 0.8526 77.4634 450.4483)" class="st8" cx="837.3" cy="87.9" rx="1.2" ry="1.2"/>
	<path class="st7" d="M863.9,80.7l2.2,0.9c1.4,0.6,2.1,2.2,1.6,3.6l0,0c-0.6,1.4-2.2,2.1-3.6,1.5l-2.2-0.9c-1.4-0.6-2.1-2.2-1.6-3.6
		l0,0C860.9,80.8,862.5,80.1,863.9,80.7z"/>
	<ellipse transform="matrix(0.3697 -0.9291 0.9291 0.3697 462.444 854.5123)" class="st8" cx="861.1" cy="86.4" rx="1.2" ry="1.2"/>
	<ellipse transform="matrix(0.3697 -0.9291 0.9291 0.3697 463.2535 857.8816)" class="st8" cx="864" cy="87.5" rx="1.2" ry="1.2"/>
	<path class="st7" d="M873.7,86.9l1.8,1.6c1.2,1,1.3,2.8,0.3,3.9l0,0c-1,1.2-2.8,1.3-3.9,0.2l-1.8-1.6c-1.2-1-1.3-2.8-0.3-3.9l0,0
		C870.7,86,872.5,85.9,873.7,86.9z"/>
	
		<ellipse transform="matrix(0.6587 -0.7524 0.7524 0.6587 227.9621 685.4191)" class="st8" cx="869.5" cy="91.4" rx="1.2" ry="1.2"/>
	
		<ellipse transform="matrix(0.6587 -0.7524 0.7524 0.6587 227.3087 687.8591)" class="st8" cx="871.9" cy="93.4" rx="1.2" ry="1.2"/>
	<path class="st7" d="M823.3,92.1l1.8-1.6c1.1-1.1,2.9-1,3.9,0.1l0,0c1,1.1,1,2.9-0.2,3.9l-1.8,1.6c-1.1,1.1-2.9,1-3.9-0.1l0,0
		C822.1,94.9,822.2,93.2,823.3,92.1z"/>
	
		<ellipse transform="matrix(0.7337 -0.6794 0.6794 0.7337 154.4106 587.8237)" class="st8" cx="827.2" cy="96.9" rx="1.2" ry="1.2"/>
	<ellipse transform="matrix(0.7337 -0.6794 0.6794 0.7337 156.5215 588.837)" class="st8" cx="829.5" cy="94.7" rx="1.2" ry="1.2"/>
	<circle class="st9" cx="876.2" cy="83.3" r="1.1"/>
	<path class="st9" d="M874.8,87.8c-1.2-0.3-2.3-1.1-2.8-2.2l-0.7-1.7c-0.4-1,0-1.3,0.9-0.7l1.2,0.8c1.1,0.6,2.4,0.8,3.6,0.6l2.2-0.6
		c1.1-0.3,1.4,0.2,0.7,1.1l-1.2,1.5c-0.8,0.9-2.1,1.3-3.3,1.2L874.8,87.8z"/>
	<path id="excited" class="st10" d="M875.8,64.7l2.5,13.8l-8-11.5c-1.2-1.2-1.2-3.2,0-4.4s3.2-1.2,4.4,0c0.3,0.3,0.5,0.6,0.6,0.9
		C875.5,63.9,875.7,64.3,875.8,64.7z M891.9,65.4l-9.4,11.1l4.1-13.9c0.3-1.7,2-2.8,3.6-2.4c1.7,0.3,2.8,2,2.4,3.6
		c0,0.2-0.1,0.4-0.2,0.6C892.4,64.8,892.2,65.2,891.9,65.4z M900.6,78l-17.1,3.5l14.9-9.1c1.4-0.9,3.3-0.5,4.2,1
		c0.9,1.4,0.5,3.3-1,4.2l0,0L900.6,78z"/>
	<path class="st5" d="M1012.9,145.4v14.5 M1007.1,149.3v14.5 M999.3,151.2v14.5"/>
	<path class="st11" d="M990.6,153.1v14.6 M981.9,155.1v14.5 M972.2,157v14.5 M962.5,158v15.4"/>
	<path class="st5" d="M1015.8,143.4V158"/>
	<path class="st11" d="M952.8,158v17.2 M942.2,158.9v16.4 M931.5,158.9v17.3 M922.7,158.9v17.3 M912.1,158.9v17.3 M901.6,158v18.1
		 M892,157v19 M823.1,130.9v38.5 M842.8,144.5v28 M852.3,147.8v25.4 M862.6,152.2v22.6 M872.9,154.6v20.1 M882.4,156v19.6"/>
	<path class="st12" d="M830.8,121.2v9.7 M883.2,113.3l0.3,36.2 M873,113.8l0.2,33.9 M862.8,114.3L863,145 M852.6,115.8l0.1,25.5
		 M842.4,117.2v20.4 M893.4,113.9l0.4,37.3 M903.8,116.1l0.3,36.2 M914.1,121.2l0.2,31.2 M923.6,130.1l0.1,22.4 M934,139.1v13.5
		 M943.9,142v9.9 M953.8,143.9v7.3 M964.7,143.9v6.6 M974.6,144.9v4.8 M983.4,145.9v2.9"/>
</g>
<g id="water-reflection">
	<path class="st13" d="M475,186h81"/>
	<path class="st14" d="M589,176h118 M551,196h51 M500,174h59"/>
	<path class="st13" d="M692,187h50"/>
</g>
<g id="mcgill">
	<path class="st15" d="M1141.1,83.1h0.5c6,0,10.8,4.8,10.8,10.8v2.5c0,6-4.8,10.8-10.8,10.8h-0.5c-6,0-10.8-4.8-10.8-10.8v-2.5
		C1130.2,88,1135.1,83.1,1141.1,83.1z"/>
	<g>
		<path class="st16" d="M1210,213.9c-5.8,0-10.5-4.7-10.5-10.5v-48.8c0-5.9,4.6-10.5,10.5-10.5h57.5c5.8,0,10.5,4.7,10.5,10.5v48.8
			c0,5.8-4.7,10.5-10.5,10.5H1210z"/>
		<path class="st17" d="M1267.5,147.1c4.1,0,7.5,3.4,7.5,7.5v48.8c0,4.1-3.4,7.5-7.5,7.5H1210c-4.1,0-7.5-3.4-7.5-7.5v-48.8
			c0-4.2,3.3-7.5,7.5-7.5H1267.5 M1267.5,141.1H1210c-7.5,0-13.5,6-13.5,13.5v48.8c0,7.4,6,13.5,13.5,13.5h57.5
			c7.4,0,13.5-6,13.5-13.5v-48.8C1281,147.2,1275,141.1,1267.5,141.1L1267.5,141.1z"/>
	</g>
	<path class="st18" d="M1015.7,141.1h57.5c7.5,0,13.5,6.1,13.5,13.5v48.8c0,7.5-6.1,13.5-13.5,13.5h-57.5c-7.5,0-13.5-6.1-13.5-13.5
		v-48.8C1002.2,147.1,1008.2,141.1,1015.7,141.1z"/>
	<path class="st17" d="M1094.5,115.9h93.5c7.5,0,13.5,6.1,13.5,13.5v75c0,7.5-6.1,13.5-13.5,13.5h-93.5c-7.5,0-13.5-6.1-13.5-13.5
		v-75C1080.9,122,1087,115.9,1094.5,115.9z"/>
	<path class="st19" d="M1079.4,113H1203c1,0,1.8,0.8,1.8,1.8v9.7c0,1-0.8,1.8-1.8,1.8h-123.6c-1,0-1.8-0.8-1.8-1.8v-9.7
		C1077.6,113.8,1078.4,113,1079.4,113z"/>
	<path id="mcgill-door" class="st20" d="M1045.5,174.9h-2.1c-3.4,0-6.1,4.9-6.1,10.9v31.7h14.3v-31.7
		C1051.7,179.7,1048.9,174.9,1045.5,174.9L1045.5,174.9z M1239.7,175.4h-2c-3.4,0-6.1,4.9-6.1,10.9v31.6h14.3v-31.7
		C1245.9,180.3,1243.2,175.4,1239.7,175.4z"/>
	<path class="st21" d="M1114.9,167.7h52.9c3.2,0,5.9,2.6,5.9,5.9v0.1c0,3.2-2.6,5.9-5.9,5.9h-52.9c-3.2,0-5.9-2.6-5.9-5.9v-0.1
		C1109.1,170.4,1111.7,167.7,1114.9,167.7z"/>
	<path class="st22" d="M1117.4,175.9L1117.4,175.9c1.6,0,2.9,1.3,2.9,2.8v32.9c0,1.5-1.3,2.8-2.8,2.8h-0.1c-1.5,0-2.8-1.3-2.8-2.8
		v-32.9C1114.6,177.2,1115.9,175.9,1117.4,175.9z"/>
	<path class="st22" d="M1133.5,175.9L1133.5,175.9c1.6,0,2.9,1.3,2.9,2.8v32.9c0,1.5-1.3,2.8-2.8,2.8h-0.1c-1.5,0-2.8-1.3-2.8-2.8
		v-32.9C1130.7,177.2,1131.9,175.9,1133.5,175.9z"/>
	<path class="st22" d="M1149.6,175.9L1149.6,175.9c1.6,0,2.9,1.3,2.9,2.8v32.9c0,1.5-1.3,2.8-2.8,2.8h-0.1c-1.5,0-2.8-1.3-2.8-2.8
		v-32.9C1146.8,177.2,1148.1,175.9,1149.6,175.9z"/>
	<path class="st22" d="M1165.7,175.9L1165.7,175.9c1.6,0,2.9,1.3,2.9,2.8v32.9c0,1.5-1.3,2.8-2.8,2.8h-0.1c-1.5,0-2.8-1.3-2.8-2.8
		v-32.9C1162.9,177.2,1164.1,175.9,1165.7,175.9z"/>
	<path class="st16" d="M1152.3,102.1c-6.5-3.6-17.1-3.6-23.7,0l-12.3,6.8c-6.5,3.6-5.8,6.5,1.7,6.5h45c7.5,0,8.2-3,1.7-6.5
		L1152.3,102.1z"/>
	<path class="st23" d="M1152.3,102.1c-6.5-3.6-17.1-3.6-23.7,0l-12.3,6.8c-6.5,3.6-5.8,6.5,1.7,6.5h45c7.5,0,8.2-3,1.7-6.5
		L1152.3,102.1z"/>
	<path class="st24" d="M1130.1,81.6h22.2c1.4,0,2.5,1.1,2.5,2.5v0.1c0,1.4-1.1,2.5-2.5,2.5h-22.2c-1.4,0-2.5-1.1-2.5-2.5v-0.1
		C1127.6,82.7,1128.8,81.6,1130.1,81.6z"/>
	<path class="st25" d="M1141.3,22.7v45.1"/>
	<g id="mcgill-flag">
		<path id="mcgill-flag-2" class="st7" d="M1148.3,19h25.1c3.8,0,6.9,3.1,6.9,6.9v14.3c0,3.8-3.1,6.9-6.9,6.9h-25.1
			c-3.8,0-6.9-3.1-6.9-6.9V26C1141.3,22.2,1144.4,19,1148.3,19z"/>
		<path class="st17" d="M1148.2,25.4c0.3-0.4,0.8-0.6,1.3-0.5c0.6,0.1,0.6-2.3,4.2-1.5s3.1,5,3.1,5s0.9,3.4,8,0
			c0.9-0.8,2-1.3,3.2-1.4l-1.3,2.2c0,0-1.1,0.9,0.7,0.7h1.3c0,0-0.5,1.8-3.2,4c0,0,0.9,2.9,4.9,2.3c4-0.5,4.3-0.4,4.3-0.4l-2.5,1.8
			l3.4,5c-3-1.7-6.2-2.8-9.6-3.2c-5-0.4-5.5,0.5-5.5,0.5c0.1,1,0.8,1.7,1.8,1.8c0,0-0.5,2.7-4.1,0.5c0,0-6.4,2-3.4-0.7l-1.8-1.3
			c0,0-0.7-0.9,0.7-0.7s-1.3-2.3-1.3-2.3s-5.5-3.1-2.7-7.8c0,0,0.4-1.8-0.9-1.4l0.7-1.1C1149.5,26.6,1149.1,25.4,1148.2,25.4
			L1148.2,25.4z"/>
	</g>
	<g>
		<path class="windows st8" d="M1094.8,132.9h5.9c1.7,0,3.1,1.4,3.1,3.1v5.1c0,1.7-1.4,3.1-3.1,3.1h-5.9c-1.7,0-3.1-1.4-3.1-3.1V136
			C1091.8,134.2,1093.1,132.9,1094.8,132.9z"/>
		<path class="windows st8" d="M1116.4,132.9h5.9c1.7,0,3.1,1.4,3.1,3.1v5.1c0,1.7-1.4,3.1-3.1,3.1h-5.9c-1.7,0-3.1-1.4-3.1-3.1V136
			C1113.4,134.2,1114.8,132.9,1116.4,132.9z"/>
		<path class="windows st8" d="M1138,132.9h5.9c1.7,0,3.1,1.4,3.1,3.1v5.1c0,1.7-1.4,3.1-3.1,3.1h-5.9c-1.7,0-3.1-1.4-3.1-3.1V136
			C1134.9,134.2,1136.3,132.9,1138,132.9z"/>
		<path class="windows st8" d="M1159.6,132.9h5.9c1.7,0,3.1,1.4,3.1,3.1v5.1c0,1.7-1.4,3.1-3.1,3.1h-5.9c-1.7,0-3.1-1.4-3.1-3.1V136
			C1156.6,134.2,1157.9,132.9,1159.6,132.9z"/>
		<path class="windows st8" d="M1181.2,132.9h5.9c1.7,0,3.1,1.4,3.1,3.1v5.1c0,1.7-1.4,3.1-3.1,3.1h-5.9c-1.7,0-3.1-1.4-3.1-3.1V136
			C1178.2,134.2,1179.6,132.9,1181.2,132.9z"/>
	</g>
	<path class="st26" d="M1152.8,79.2c0-5.8-5.1-10.5-11.5-10.5s-11.5,4.7-11.5,10.5v0.3h23.1L1152.8,79.2z"/>
</g>
<g id="tank">
	<path class="st27" d="M249.4,118.5v15.4"/>
	<path class="st19" d="M253.1,118.5l-3.6,15.4l-3.6-15.4c-0.5-2,0.8-4,2.8-4.5s4,0.8,4.5,2.8C253.2,117.3,253.2,117.9,253.1,118.5z"
		/>
	<ellipse class="st28" cx="249.4" cy="110.8" rx="4.3" ry="6.4"/>
	<path class="st27" d="M269,95.2l21.5,62"/>
	<path class="st9" d="M272.5,94l18.1,63.2l-24.8-60.8c-0.6-1.9,0.4-3.9,2.3-4.6c1.7-0.6,3.6,0.2,4.4,1.9V94z"/>
	<path class="st27" d="M259.8,105.6l6.8,37.4"/>
	<path class="st9" d="M263.4,104.9l3.2,38l-10.3-36.8c-0.5-1.9,0.6-3.9,2.5-4.5c1.9-0.5,3.9,0.6,4.5,2.5
		C263.3,104.5,263.4,104.7,263.4,104.9L263.4,104.9z"/>
	<path class="st27" d="M239.6,106.2l-3.6,16"/>
	<path class="st9" d="M243.1,107l-7.2,15.2l0.2-16.8c0-2,1.7-3.7,3.7-3.7s3.7,1.7,3.7,3.7l0,0C243.5,106,243.3,106.5,243.1,107
		L243.1,107z"/>
	<path class="st27" d="M230.4,95.2l-9.1,27"/>
	<path class="st9" d="M233.8,96.4l-12.6,25.8L227,94c0.4-2,2.3-3.2,4.3-2.8c2,0.4,3.2,2.3,2.8,4.3C234,95.8,233.9,96.1,233.8,96.4z"
		/>
	<path class="st17" d="M259.5,38.7H237c-6,0-10.8,4.9-10.8,10.8v29.3c0,6,4.9,10.8,10.8,10.8h22.5c6,0,10.8-4.9,10.8-10.8V49.6
		C270.3,43.6,265.5,38.7,259.5,38.7z"/>
	<path class="st8" d="M249.2,106.8c-9.4,0-17.3-7.2-18.1-16.6h36.1C266.4,99.6,258.6,106.8,249.2,106.8z"/>
	<path class="st29" d="M218.5,91v-8c6.2-2.3,17.5-3.8,30.4-3.8s22.7,1.4,29.2,3.4v8.7c-5.9-2.6-17.1-4.4-30.1-4.4
		C234.9,86.9,224.5,88.6,218.5,91z"/>
	<path class="st8" d="M248.8,95.2c-12.8,0-24.1-1.5-30.4-3.8v-0.3c6.1-2.5,17-4.2,29.5-4.2c12.5,0,24.2,1.8,30.1,4.4v0.5
		C271.5,93.8,260.9,95.2,248.8,95.2z"/>
	<path class="st8" d="M244,22.5c2.5-1.9,5.9-1.9,8.4,0l22,17.7l4.2,3.4l-5.1,2c0,0-12.6,4.8-25.8,4.8s-25.4-4.5-25.4-4.5
		c-2.8-1-3.2-3.3-0.9-5.2L244,22.5z"/>
</g>
<g id="mile-end-bridge">
	<path class="st19" d="M184.5,115.1C596.5,237.1,796,211,796,211c-170.2-36-139.5,12.3-630.5-119.7L184.5,115.1z"/>
	<path class="st8" d="M200.5,115.1c299,79,585.3,99.1,583.5,100.9c0,0-368.5-11.5-554.5-65.5"/>
</g>
<g id="mont-royal">
	<path class="st30" d="M3,211.8v0.2l23.5-0.5L3,211.8z"/>
	<path class="st31" d="M3,211.8l23.5-0.3c39.8-1,92.7-3.2,124.7-8.2c37.6-6,68.5-25.2,88-46.7c-3.3-1.9-6.5-3.9-9.7-6
		s-11.4-11.7-24.4-24.6c-37.2,15.5-111.4,36.9-153.9,43.8c-15.9,2.5-32,4-48.2,4.3"/>
	<path class="st32" d="M151.2,203.2c-32.1,5.1-84.8,7.3-124.7,8.2l178.7,10.3l211,6.1c-61.6-19.8-142.4-51.3-176.9-71.4
		C219.8,178.1,188.9,197.3,151.2,203.2L151.2,203.2z"/>
	<path class="st33" d="M3,174.1c16.1-0.4,32.2-1.8,48.2-4.3c42.5-6.9,116.7-28.3,154-43.8c-12.4-12.4-25.7-24-39.7-34.6
		c-17.9-13.6-34.5-26-56.8-35.8c4.8,7.5,7.9,16,5.4,23.6s-10.4,12.4-37.6,20.4C42.2,109.7,21.5,112,3,116.3"/>
	<path class="st34" d="M3,116.3c18.5-4.2,39.2-6.6,73.5-16.7c27.2-8,34.9-12.7,37.6-20.4c2.6-7.7-0.6-16-5.4-23.6
		c-2.9-1.2-5.7-2.4-8.7-3.6c-19.2-7.3-39.5-11.6-60-12.8v4.6c0.3,1.8-1,3.5-2.8,3.8s-3.5-1-3.8-2.8c-0.1-0.3-0.1-0.7,0-1v-4.9
		c-10.2-0.4-20.3,0-30.4,1"/>
	<path id="cross" class="st10" d="M50,20.1H39.9V8.4c0.3-1.8-1-3.5-2.8-3.8s-3.5,1-3.8,2.8c-0.1,0.3-0.1,0.7,0,1v11.7h-10
		c-1.6,0.3-2.8,1.8-2.5,3.5c0.2,1.3,1.2,2.3,2.5,2.5h10v17.6c-0.3,1.8,1,3.5,2.8,3.8s3.5-1,3.8-2.8c0.1-0.3,0.1-0.7,0-1V26H50
		c1.6-0.3,2.8-1.8,2.5-3.5C52.3,21.3,51.3,20.3,50,20.1z"/>
</g>
<path id="road" class="st35" d="M3,207h1280v40H3V207z"/>
<g id="home">
	<path class="st16" d="M77.5,161.3h86.1c3.8,0,7,3.1,7,7v44.3c0,3.8-3.1,7-7,7H77.5c-3.8,0-7-3.1-7-7v-44.3
		C70.5,164.4,73.6,161.3,77.5,161.3z"/>
	<path class="st16" d="M84.4,185.6h16.9c3.6,0,6.6,2.9,6.6,6.6v24.2c0,3.6-2.9,6.6-6.6,6.6H84.4c-3.6,0-6.6-2.9-6.6-6.6v-24.2
		C77.9,188.5,80.8,185.6,84.4,185.6z"/>
	<path class="st17" d="M101.3,188.3c2.1,0,3.9,1.7,3.9,3.9v24.2c0,2.1-1.7,3.9-3.9,3.9H84.4c-2.1,0-3.9-1.7-3.9-3.9v-24.2
		c0-2.1,1.7-3.9,3.9-3.9H101.3 M101.4,182.9h-17c-5.1,0-9.3,4.2-9.3,9.3v24.2c0,5.1,4.2,9.3,9.3,9.3h16.9c5.1,0,9.3-4.2,9.3-9.3
		v-24.2C110.7,187,106.5,182.9,101.4,182.9z"/>
	<path class="st3" d="M167.1,149.3c-3.6-5.3-11.9-9.5-18.3-9.5H92.4c-6.3,0-14.6,4.3-18.3,9.5l-4.3,6.2c-3.6,5.3-1.5,9.5,5,9.5h91.7
		c6.4,0,8.6-4.3,5-9.5L167.1,149.3z"/>
	<path class="st3" d="M100.1,163.9c-3.9-5-10.4-5-14.5,0l-9.7,12.2c-3.9,5-2,9.1,4.4,9.1h25.1c6.4,0,8.4-4.1,4.4-9.1L100.1,163.9z"
		/>
	<path class="st16" d="M88.2,180.4c-2.4,0-4.1-0.6-4.6-1.8s0-2.9,1.5-4.8l1.8-2.2c2.3-3.3,6.8-4.2,10.1-1.9c0.7,0.5,1.4,1.1,1.9,1.9
		l1.8,2.2c1.5,1.9,2.1,3.6,1.5,4.8c-0.5,1.2-2.2,1.8-4.7,1.8H88.2z"/>
	<path id="house-door" class="st19" d="M93.9,205.1h-1.7c-2.8,0-5.1,2.3-5.1,5.1l0,0v14.9h12v-14.9
		C99.1,207.4,96.8,205.1,93.9,205.1L93.9,205.1z"/>
	<g id="tree">
		<path class="st4" d="M148.3,112.5c0,0,22.9,35.3,22.9,51.7s-7.5,29.7-22.9,29.7s-22.9-13.3-22.9-29.7S148.3,112.5,148.3,112.5z"/>
		<path class="st9" d="M148.3,166.2c-0.2-2.6-0.5-2.6-0.7,0l-4.9,67.2c-0.2,2.3,1.5,4.4,3.8,4.6c0.2,0,0.3,0,0.5,0h1.9
			c2.3,0.1,4.3-1.8,4.3-4.2c0-0.2,0-0.3,0-0.5L148.3,166.2z"/>
	</g>
	<path id="house-bush" class="st4" d="M88.6,219.4c1.5-4.6-1.1-9.6-5.7-11.1c-0.4-0.1-0.9-0.2-1.3-0.3c0.1-0.7,0.2-1.4,0.2-2.2
		c0.3-12.2-9.4-22.3-21.6-22.6c-11.2-0.2-20.8,7.9-22.4,19c-9.4,2.4-15.2,12-12.8,21.4c1.9,7.7,8.7,13.1,16.6,13.3
		c7,0.2,35.2,0.2,41.8,0.4c6.6,0.2,11.5-0.5,11.6-7.1C95,225.7,92.6,221.5,88.6,219.4z"/>
</g>
<path class="st16" d="M364.3,227.9c-5,0-9-4.1-9.1-9.1v-0.5c0-6.6-2.4-16.6-5.4-22.5l-8.5-17c-1-2-1.1-3.7-0.4-4.9
	c0.8-1.2,2.3-1.8,4.5-1.8l59.4,0.5c2.1,0,4.3,0.1,6.4,0.4c-2,1.1-4.1,2.1-6.2,3c-6.1,2.6-13.6,9.3-17,15.2l-3.6,6.3
	c-3.3,5.7-5.8,15.5-5.7,21.9c0.1,2.2-0.7,4.3-2.3,5.8c-1.7,1.7-4,2.7-6.4,2.6L364.3,227.9z"/>
<path class="st17" d="M345.4,174.3L345.4,174.3l56.7,0.5c-6.1,3.3-12.9,9.6-16.2,15.2l-3.6,6.3c-3.6,6.1-6.2,16.3-6,23.1
	c0,1.6-0.6,3.1-1.7,4.2c-1.3,1.3-3,2-4.8,2h-5.7c-3.7,0-6.8-3.1-6.8-6.8v-0.5c0-7-2.5-17.3-5.6-23.5l-8.4-16.9
	c-0.7-1.3-0.7-2.3-0.5-2.7S344.1,174.3,345.4,174.3 M345.5,169.8c-6.1,0-8.9,4.5-6.1,10.1l8.5,17c2.8,5.6,5.1,15.3,5.1,21.5v0.5
	c0,6.2,5.1,11.3,11.3,11.3h5.7c6.3,0,11.2-4.9,11-10.8s2.2-15.3,5.3-20.7l3.6-6.3c3.1-5.4,10.3-11.8,16-14.2s10.2-5.1,10.2-6.1
	c0-0.9-5.1-1.7-11.3-1.7L345.5,169.8L345.5,169.8z"/>
<path id="bridge-foot-2" class="st17" d="M345.4,174.3L345.4,174.3l56.7,0.5c-6.1,3.3-12.9,9.6-16.2,15.2l-3.6,6.3
	c-3.6,6.1-6.2,16.3-6,23.1c0,1.6-0.6,3.1-1.7,4.2c-1.3,1.3-3,2-4.8,2h-5.7c-3.7,0-6.8-3.1-6.8-6.8v-0.5c0-7-2.5-17.3-5.6-23.5
	l-8.4-16.9c-0.7-1.3-0.7-2.3-0.5-2.7S344.1,174.3,345.4,174.3 M345.5,169.8c-6.1,0-8.9,4.5-6.1,10.1l8.5,17
	c2.8,5.6,5.1,15.3,5.1,21.5v0.5c0,6.2,5.1,11.3,11.3,11.3h5.7c6.3,0,11.2-4.9,11-10.8s2.2-15.3,5.3-20.7l3.6-6.3
	c3.1-5.4,10.3-11.8,16-14.2s10.2-5.1,10.2-6.1c0-0.9-5.1-1.7-11.3-1.7L345.5,169.8L345.5,169.8z"/>
<path class="st16" d="M317,231.3c-5,0-9.1-4-9.2-9.1v-3.9c-0.1-6.6-2.7-16.6-5.8-22.4l-14.6-26.8c-1.1-1.9-1.2-3.6-0.5-4.8
	c0.7-1.1,2.3-1.7,4.4-1.7l82.9,0.8c2.5,0,5.1,0.2,7.6,0.7c-2.4,1.4-5,2.6-7.6,3.6l-7.2,2.6c-6.4,2.3-14.1,8.9-17.5,14.8L342,198
	c-3.3,5.7-6,15.7-6,22.3v2c0,5-4.1,9.1-9.1,9.1H317V231.3z"/>
<path class="st17" d="M291.3,164.9L291.3,164.9l81.8,0.8l-6.9,2.6c-6.8,2.5-15.1,9.5-18.7,15.7l-7.5,12.9
	c-3.6,6.1-6.3,16.4-6.3,23.4v2c0,3.8-3,6.8-6.8,6.8H317c-3.8,0-6.9-3.1-7-6.9v-3.9c-0.1-7-2.7-17.2-6.1-23.4l-14.5-26.8
	c-0.8-1.4-0.8-2.3-0.6-2.5C289,165.3,289.7,164.9,291.3,164.9 M291.3,160.4c-6.1,0-8.8,4.4-5.8,9.9L300,197c3,5.5,5.4,15.1,5.5,21.3
	v3.9c0.1,6.3,5.2,11.3,11.5,11.3h9.8c6.3,0,11.3-5.1,11.3-11.3v-2c0-6.2,2.6-15.7,5.7-21.2l7.5-12.9c3.1-5.4,10.5-11.6,16.3-13.8
	l7.2-2.6c5.8-2.2,10.7-5,10.7-6.3s-5.1-2.3-11.3-2.4L291.3,160.4L291.3,160.4z"/>
<path class="graffitis st36" d="M310.9,196.6l-3.1-6.3c-0.2-0.5-0.7-0.8-1.2-0.9l-6.9-1c-1.3-0.2-1.9-1.8-0.9-2.8l5-4.9
	c0.4-0.4,0.6-0.9,0.5-1.4l-1.2-6.9c-0.2-1.3,1.2-2.3,2.4-1.7l6.2,3.3c0.5,0.2,1,0.2,1.5,0l6.2-3.3c1.2-0.6,2.6,0.4,2.4,1.7l-1.2,6.9
	c-0.1,0.5,0.1,1.1,0.5,1.4l5,4.9c1,0.9,0.4,2.6-0.9,2.8l-6.9,1c-0.5,0.1-1,0.4-1.2,0.9l-3.1,6.3
	C313.2,197.8,311.5,197.8,310.9,196.6z"/>
<path class="graffitis st37" d="M376.6,188.9c1-3.5-0.9-7.1-4.4-8.2c-2.4-0.7-4,0.2-4,0.2c-1.4,0.8-3.2,0.3-3.9-1.2
	c0,0-0.8-1.7-3.3-2.4c-3.5-1-7.1,0.9-8.2,4.4c-1,3.4,5.6,17.7,5.6,17.7c0.7,1.5,2.4,2,3.8,1.1C362.2,200.5,375.7,191.7,376.6,188.9z
	"/>
<path id="bridge-foot-1" class="st17" d="M291.3,164.9L291.3,164.9l81.8,0.8l-6.9,2.6c-6.8,2.5-15.1,9.5-18.7,15.7l-7.5,12.9
	c-3.6,6.1-6.3,16.4-6.3,23.4v2c0,3.8-3,6.8-6.8,6.8H317c-3.8,0-6.9-3.1-7-6.9v-3.9c-0.1-7-2.7-17.2-6.1-23.4l-14.5-26.8
	c-0.8-1.4-0.8-2.3-0.6-2.5C289,165.3,289.7,164.9,291.3,164.9 M291.3,160.4c-6.1,0-8.8,4.4-5.8,9.9L300,197c3,5.5,5.4,15.1,5.5,21.3
	v3.9c0.1,6.3,5.2,11.3,11.5,11.3h9.8c6.3,0,11.3-5.1,11.3-11.3v-2c0-6.2,2.6-15.7,5.7-21.2l7.5-12.9c3.1-5.4,10.5-11.6,16.3-13.8
	l7.2-2.6c5.8-2.2,10.7-5,10.7-6.3s-5.1-2.3-11.3-2.4L291.3,160.4L291.3,160.4z"/>
<path class="graffitis st38" d="M336.1,170.9c0.1,0.1,1.6-1.2,1.6-1.1c0.1,0.2-1.9,1.1-1.8,1.3c0.1,0.1,1.7-1.3,1.7-1.2
	c0.1,0.2-2,1.5-1.8,1.7c0.1,0.2,2.8-2.2,2.9-2c0.3,0.4-3,4.2-2.7,4.6c0.5,0.8,9.2-7.7,9.8-6.8c0.8,1.2-10.7,10.5-9.8,11.7
	c0.7,1,11.3-9.5,12.1-8.4c0.8,1.2-13.1,7.7-12.3,8.9c0.8,1.1,11.7-9.7,12.4-8.7c0.7,1-9.3,8.6-8.6,9.6c0.6,0.9,9.7-8.1,10.3-7.2
	c0.6,0.8-7.2,8.1-6.6,8.9c0.2,0.2,2.8-2.3,3-2.1s-2.4,1.9-2.2,2.1c0.1,0.1,1.7-1.3,1.7-1.2"/>
<circle class="graffitis st10" cx="321.2" cy="211.8" r="6.9"/>
<path class="graffitis st39" d="M365.7,219.2c0.2-0.1-1.7-2.2-1.5-2.3c0.3-0.2,3.1,1.4,3.4,1.2c0.7-0.5-5.9-7.3-5.2-7.7
	c0.8-0.6,6.1,7.5,7,6.9c0.6-0.4-5.6-6.8-4.9-7.3s5.2,6.4,5.9,5.9c0.7-0.4-5.4-6.6-4.8-7.1c0.8-0.5,5.5,6.9,6.3,6.3
	c0.7-0.5-5.6-6.9-4.9-7.3"/>
</svg>
