<?xml version="1.0" encoding="utf-8"?>
<!-- Generator: Adobe Illustrator 15.0.0, SVG Export Plug-In . SVG Version: 6.00 Build 0)  -->
<!DOCTYPE svg PUBLIC "-//W3C//DTD SVG 1.1//EN" "http://www.w3.org/Graphics/SVG/1.1/DTD/svg11.dtd">
<svg version="1.1" xmlns="http://www.w3.org/2000/svg" xmlns:xlink="http://www.w3.org/1999/xlink" x="0px" y="0px" width="90px"
	 height="66px" viewBox="0 0 90 66" enable-background="new 0 0 90 66" xml:space="preserve">
<g id="Layer_2">
</g>
<g id="Layer_4">
	<path fill="none" stroke="#FFFFFF" stroke-linecap="round" stroke-linejoin="bevel" stroke-miterlimit="10" d="M76.691,17.683
		c-7.229,5.897-17.262,13.232-28.625,20.78C24.114,54.371,3.323,65.201,1.63,62.652"/>
	<path fill="none" stroke="#FFFFFF" stroke-linecap="round" stroke-linejoin="round" stroke-miterlimit="10" d="M88.37,5.038
		c0.646,0.972-1.573,3.746-5.894,7.688"/>
	<g>
		<g>
			<path fill="none" stroke="#FFFFFF" stroke-miterlimit="10" d="M1.63,62.652c-0.085-0.129-0.12-0.289-0.108-0.478"/>
			<path fill="none" stroke="#FFFFFF" stroke-miterlimit="10" stroke-dasharray="0.9997,0.9997" d="M1.838,61.236
				c2.466-4.705,18.986-17.99,40.094-32.01C63.751,14.734,82.945,4.457,87.475,4.669"/>
			<path fill="none" stroke="#FFFFFF" stroke-miterlimit="10" d="M87.973,4.753c0.18,0.062,0.312,0.156,0.397,0.284"/>
		</g>
	</g>
	<circle fill="#FFFFFF" cx="45.114" cy="33.325" r="13.718"/>
	<circle fill="#FFFFFF" cx="79.773" cy="15.587" r="2.703"/>
</g>
</svg>
